<svg width="1570" height="1570" viewBox="0 0 1570 1570" fill="none" xmlns="http://www.w3.org/2000/svg">
<path d="M130.833 392.5C130.833 323.102 158.402 256.546 207.474 207.474C256.546 158.402 323.102 130.833 392.5 130.833H1177.5C1246.9 130.833 1313.45 158.402 1362.53 207.474C1411.6 256.546 1439.17 323.102 1439.17 392.5V1177.5C1439.17 1246.9 1411.6 1313.45 1362.53 1362.53C1313.45 1411.6 1246.9 1439.17 1177.5 1439.17H392.5C323.102 1439.17 256.546 1411.6 207.474 1362.53C158.402 1313.45 130.833 1246.9 130.833 1177.5V392.5Z" fill="#151F24" stroke="#E82339" stroke-width="61" stroke-linecap="round" stroke-linejoin="round"/>
<path d="M588.75 1079.37V574.358C588.75 559.775 593.624 545.61 602.596 534.113C611.568 522.617 624.124 514.448 638.27 510.904L1030.77 412.779C1040.42 410.363 1050.49 410.177 1060.21 412.236C1069.94 414.296 1079.07 418.546 1086.91 424.663C1094.75 430.781 1101.09 438.605 1105.45 447.541C1109.82 456.477 1112.08 466.29 1112.08 476.233V981.25" fill="#151F24"/>
<path d="M588.75 1079.37V574.358C588.75 559.775 593.624 545.61 602.596 534.113C611.568 522.617 624.124 514.448 638.27 510.904L1030.77 412.779C1040.42 410.363 1050.49 410.177 1060.21 412.236C1069.94 414.296 1079.07 418.546 1086.91 424.663C1094.75 430.781 1101.09 438.605 1105.45 447.541C1109.82 456.477 1112.08 466.29 1112.08 476.233V981.25" stroke="#E82339" stroke-width="61" stroke-linecap="round" stroke-linejoin="round"/>
<path d="M588.75 719.583L1112.08 588.75Z" fill="#151F24"/>
<path d="M588.75 719.583L1112.08 588.75" stroke="#E82339" stroke-width="61"/>
<path d="M490.625 1177.5C544.818 1177.5 588.75 1133.57 588.75 1079.38C588.75 1025.18 544.818 981.25 490.625 981.25C436.432 981.25 392.5 1025.18 392.5 1079.38C392.5 1133.57 436.432 1177.5 490.625 1177.5Z" fill="#151F24" stroke="#E82339" stroke-width="61"/>
<path d="M1013.96 1112.08C1068.15 1112.08 1112.08 1068.15 1112.08 1013.96C1112.08 959.765 1068.15 915.833 1013.96 915.833C959.765 915.833 915.833 959.765 915.833 1013.96C915.833 1068.15 959.765 1112.08 1013.96 1112.08Z" fill="#151F24" stroke="#E82339" stroke-width="61"/>
</svg>
